<mxfile host="Electron" modified="2023-04-24T16:33:58.083Z" agent="Mozilla/5.0 (Windows NT 10.0; Win64; x64) AppleWebKit/537.36 (KHTML, like Gecko) draw.io/21.1.2 Chrome/106.0.5249.199 Electron/21.4.3 Safari/537.36" etag="17V3qUPpH0V-Kd5vtIvL" version="21.1.2" type="device">
  <diagram name="Page-1" id="R03AG7ypxFVYIHhjkc5k">
    <mxGraphModel dx="1050" dy="621" grid="1" gridSize="10" guides="1" tooltips="1" connect="1" arrows="1" fold="1" page="1" pageScale="1" pageWidth="1169" pageHeight="827" math="0" shadow="0">
      <root>
        <mxCell id="0" />
        <mxCell id="1" parent="0" />
        <mxCell id="moVL_tPFM2XhOs-0uIPc-43" style="rounded=0;orthogonalLoop=1;jettySize=auto;html=1;exitX=0;exitY=0.5;exitDx=0;exitDy=0;entryX=1;entryY=0.5;entryDx=0;entryDy=0;fontColor=#FFFFFF;startArrow=classic;startFill=1;" parent="1" source="moVL_tPFM2XhOs-0uIPc-13" target="moVL_tPFM2XhOs-0uIPc-32" edge="1">
          <mxGeometry relative="1" as="geometry" />
        </mxCell>
        <mxCell id="moVL_tPFM2XhOs-0uIPc-46" style="edgeStyle=none;rounded=0;orthogonalLoop=1;jettySize=auto;html=1;exitX=1;exitY=0.5;exitDx=0;exitDy=0;entryX=0;entryY=0.5;entryDx=0;entryDy=0;fontColor=#FFFFFF;startArrow=classic;startFill=1;" parent="1" source="moVL_tPFM2XhOs-0uIPc-13" target="moVL_tPFM2XhOs-0uIPc-41" edge="1">
          <mxGeometry relative="1" as="geometry" />
        </mxCell>
        <mxCell id="moVL_tPFM2XhOs-0uIPc-48" style="edgeStyle=none;rounded=0;orthogonalLoop=1;jettySize=auto;html=1;exitX=0.25;exitY=0;exitDx=0;exitDy=0;fontColor=#FFFFFF;startArrow=classic;startFill=1;entryX=1;entryY=0.5;entryDx=0;entryDy=0;" parent="1" source="moVL_tPFM2XhOs-0uIPc-13" target="moVL_tPFM2XhOs-0uIPc-37" edge="1">
          <mxGeometry relative="1" as="geometry">
            <mxPoint x="420" y="250" as="targetPoint" />
          </mxGeometry>
        </mxCell>
        <mxCell id="moVL_tPFM2XhOs-0uIPc-49" style="edgeStyle=none;rounded=0;orthogonalLoop=1;jettySize=auto;html=1;exitX=0.75;exitY=0;exitDx=0;exitDy=0;entryX=0;entryY=0.5;entryDx=0;entryDy=0;fontColor=#FFFFFF;startArrow=classic;startFill=1;" parent="1" source="moVL_tPFM2XhOs-0uIPc-13" target="moVL_tPFM2XhOs-0uIPc-39" edge="1">
          <mxGeometry relative="1" as="geometry" />
        </mxCell>
        <mxCell id="moVL_tPFM2XhOs-0uIPc-13" value="" style="shape=image;verticalLabelPosition=bottom;labelBackgroundColor=default;verticalAlign=top;aspect=fixed;imageAspect=0;image=https://cdn-icons-png.flaticon.com/512/2821/2821858.png;" parent="1" vertex="1">
          <mxGeometry x="534" y="363" width="102" height="102" as="geometry" />
        </mxCell>
        <mxCell id="moVL_tPFM2XhOs-0uIPc-27" value="" style="shape=image;verticalLabelPosition=bottom;labelBackgroundColor=default;verticalAlign=top;aspect=fixed;imageAspect=0;image=https://cdn-icons-png.flaticon.com/512/3273/3273701.png;" parent="1" vertex="1">
          <mxGeometry x="634" y="315" width="42" height="42" as="geometry" />
        </mxCell>
        <mxCell id="moVL_tPFM2XhOs-0uIPc-28" value="" style="shape=image;verticalLabelPosition=bottom;labelBackgroundColor=default;verticalAlign=top;aspect=fixed;imageAspect=0;image=https://cdn-icons-png.flaticon.com/512/3273/3273701.png;" parent="1" vertex="1">
          <mxGeometry x="647" y="416" width="42" height="42" as="geometry" />
        </mxCell>
        <mxCell id="moVL_tPFM2XhOs-0uIPc-29" value="" style="shape=image;verticalLabelPosition=bottom;labelBackgroundColor=default;verticalAlign=top;aspect=fixed;imageAspect=0;image=https://cdn-icons-png.flaticon.com/512/3273/3273701.png;" parent="1" vertex="1">
          <mxGeometry x="449" y="428" width="42" height="42" as="geometry" />
        </mxCell>
        <mxCell id="moVL_tPFM2XhOs-0uIPc-30" value="" style="shape=image;verticalLabelPosition=bottom;labelBackgroundColor=default;verticalAlign=top;aspect=fixed;imageAspect=0;image=https://cdn-icons-png.flaticon.com/512/3273/3273701.png;" parent="1" vertex="1">
          <mxGeometry x="464" y="321" width="42" height="42" as="geometry" />
        </mxCell>
        <mxCell id="moVL_tPFM2XhOs-0uIPc-32" value="" style="shape=image;verticalLabelPosition=bottom;labelBackgroundColor=default;verticalAlign=top;aspect=fixed;imageAspect=0;image=https://cdn-icons-png.flaticon.com/512/1887/1887041.png;" parent="1" vertex="1">
          <mxGeometry x="338" y="458" width="62" height="62" as="geometry" />
        </mxCell>
        <mxCell id="moVL_tPFM2XhOs-0uIPc-33" value="" style="shape=image;verticalLabelPosition=bottom;labelBackgroundColor=default;verticalAlign=top;aspect=fixed;imageAspect=0;image=https://cdn-icons-png.flaticon.com/512/1887/1887041.png;" parent="1" vertex="1">
          <mxGeometry x="410" y="476" width="62" height="62" as="geometry" />
        </mxCell>
        <mxCell id="moVL_tPFM2XhOs-0uIPc-34" value="" style="shape=image;verticalLabelPosition=bottom;labelBackgroundColor=default;verticalAlign=top;aspect=fixed;imageAspect=0;image=https://cdn-icons-png.flaticon.com/512/1887/1887041.png;" parent="1" vertex="1">
          <mxGeometry x="320" y="352" width="62" height="62" as="geometry" />
        </mxCell>
        <mxCell id="moVL_tPFM2XhOs-0uIPc-35" value="" style="shape=image;verticalLabelPosition=bottom;labelBackgroundColor=default;verticalAlign=top;aspect=fixed;imageAspect=0;image=https://cdn-icons-png.flaticon.com/512/1887/1887041.png;" parent="1" vertex="1">
          <mxGeometry x="330" y="238" width="62" height="62" as="geometry" />
        </mxCell>
        <mxCell id="moVL_tPFM2XhOs-0uIPc-36" value="" style="shape=image;verticalLabelPosition=bottom;labelBackgroundColor=default;verticalAlign=top;aspect=fixed;imageAspect=0;image=https://cdn-icons-png.flaticon.com/512/1887/1887041.png;" parent="1" vertex="1">
          <mxGeometry x="280" y="292" width="62" height="62" as="geometry" />
        </mxCell>
        <mxCell id="moVL_tPFM2XhOs-0uIPc-37" value="" style="shape=image;verticalLabelPosition=bottom;labelBackgroundColor=default;verticalAlign=top;aspect=fixed;imageAspect=0;image=https://cdn-icons-png.flaticon.com/512/1887/1887041.png;" parent="1" vertex="1">
          <mxGeometry x="360" y="295" width="62" height="62" as="geometry" />
        </mxCell>
        <mxCell id="moVL_tPFM2XhOs-0uIPc-38" value="" style="shape=image;verticalLabelPosition=bottom;labelBackgroundColor=default;verticalAlign=top;aspect=fixed;imageAspect=0;image=https://cdn-icons-png.flaticon.com/512/1887/1887041.png;" parent="1" vertex="1">
          <mxGeometry x="636" y="250" width="62" height="62" as="geometry" />
        </mxCell>
        <mxCell id="moVL_tPFM2XhOs-0uIPc-39" value="" style="shape=image;verticalLabelPosition=bottom;labelBackgroundColor=default;verticalAlign=top;aspect=fixed;imageAspect=0;image=https://cdn-icons-png.flaticon.com/512/1887/1887041.png;" parent="1" vertex="1">
          <mxGeometry x="690" y="286" width="62" height="62" as="geometry" />
        </mxCell>
        <mxCell id="moVL_tPFM2XhOs-0uIPc-40" value="" style="shape=image;verticalLabelPosition=bottom;labelBackgroundColor=default;verticalAlign=top;aspect=fixed;imageAspect=0;image=https://cdn-icons-png.flaticon.com/512/1887/1887041.png;" parent="1" vertex="1">
          <mxGeometry x="680" y="366" width="62" height="62" as="geometry" />
        </mxCell>
        <mxCell id="moVL_tPFM2XhOs-0uIPc-41" value="" style="shape=image;verticalLabelPosition=bottom;labelBackgroundColor=default;verticalAlign=top;aspect=fixed;imageAspect=0;image=https://cdn-icons-png.flaticon.com/512/1887/1887041.png;" parent="1" vertex="1">
          <mxGeometry x="700" y="428" width="62" height="62" as="geometry" />
        </mxCell>
        <mxCell id="moVL_tPFM2XhOs-0uIPc-42" value="" style="shape=image;verticalLabelPosition=bottom;labelBackgroundColor=default;verticalAlign=top;aspect=fixed;imageAspect=0;image=https://cdn-icons-png.flaticon.com/512/1887/1887041.png;" parent="1" vertex="1">
          <mxGeometry x="650" y="482" width="62" height="62" as="geometry" />
        </mxCell>
      </root>
    </mxGraphModel>
  </diagram>
</mxfile>
